<svg xmlns="http://www.w3.org/2000/svg" viewBox="10 -26 672 732" fill="none" role="img" aria-label="srelens mark">
  <defs>
    <linearGradient id="brand" x1="34" y1="6" x2="619" y2="684" gradientUnits="userSpaceOnUse">
      <stop stop-color="#1769FF"/>
      <stop offset="0.58" stop-color="#087AE8"/>
      <stop offset="1" stop-color="#0AB5A1"/>
    </linearGradient>
    <linearGradient id="ring" x1="120" y1="152" x2="464" y2="561" gradientUnits="userSpaceOnUse">
      <stop stop-color="#1769FF"/>
      <stop offset="0.70" stop-color="#0B83E5"/>
      <stop offset="1" stop-color="#08A99B"/>
    </linearGradient>
  </defs>
  <!-- official app-icon geometry, for light backgrounds -->
  <path d="M346 26 L630 190 L630 516 L346 680 L62 516 L62 190 Z" stroke="url(#brand)" stroke-width="34" stroke-linecap="round" stroke-linejoin="round"/>
  <circle cx="346" cy="26" r="38" fill="#1769FF" stroke="#fff" stroke-width="9"/>
  <circle cx="62" cy="516" r="38" fill="#1769FF" stroke="#fff" stroke-width="9"/>
  <circle cx="630" cy="516" r="38" fill="#35D28C" stroke="#fff" stroke-width="9"/>

  <path d="M210 405 A148 148 0 0 1 265 236" stroke="url(#ring)" stroke-width="42" stroke-linecap="round"/>
  <path d="M299 199 A148 148 0 0 1 415 201" stroke="url(#ring)" stroke-width="42" stroke-linecap="round"/>
  <path d="M458 238 A148 148 0 0 1 491 392" stroke="url(#ring)" stroke-width="42" stroke-linecap="round"/>
  <path d="M449 449 A148 148 0 0 1 336 499" stroke="url(#ring)" stroke-width="42" stroke-linecap="round"/>
  <path d="M279 482 A148 148 0 0 1 210 430" stroke="url(#ring)" stroke-width="42" stroke-linecap="round"/>

  <circle cx="352" cy="352" r="81" fill="#22324D"/>
  <circle cx="352" cy="352" r="42" fill="#fff" opacity="0.10"/>
  <path d="M409 409 L543 543" stroke="#26364F" stroke-width="68" stroke-linecap="round"/>
  <path d="M410 410 L540 540" stroke="#344862" stroke-width="23" stroke-linecap="round" opacity="0.7"/>
  <path d="M346 137 V190" stroke="#1769FF" stroke-width="32" stroke-linecap="round"/>
</svg>
